<mxfile host="app.diagrams.net" agent="Mozilla/5.0 (Windows NT 10.0; Win64; x64) AppleWebKit/537.36 (KHTML, like Gecko) Chrome/139.0.0.0 Safari/537.36" version="26.1.3">
  <diagram name="Page-1" id="7Pzd54XaaaVE_Tquv6VG">
    <mxGraphModel dx="1018" dy="701" grid="1" gridSize="10" guides="1" tooltips="1" connect="1" arrows="1" fold="1" page="1" pageScale="1" pageWidth="850" pageHeight="1100" math="0" shadow="0">
      <root>
        <mxCell id="0" />
        <mxCell id="1" parent="0" />
        <mxCell id="VHVBHo6u8znhHrg9d9eZ-21" style="edgeStyle=orthogonalEdgeStyle;rounded=0;orthogonalLoop=1;jettySize=auto;html=1;exitX=0.5;exitY=0;exitDx=0;exitDy=0;" edge="1" parent="1" source="VHVBHo6u8znhHrg9d9eZ-2" target="VHVBHo6u8znhHrg9d9eZ-19">
          <mxGeometry relative="1" as="geometry" />
        </mxCell>
        <mxCell id="VHVBHo6u8znhHrg9d9eZ-22" style="edgeStyle=orthogonalEdgeStyle;rounded=0;orthogonalLoop=1;jettySize=auto;html=1;exitX=0.5;exitY=1;exitDx=0;exitDy=0;entryX=0.5;entryY=0;entryDx=0;entryDy=0;" edge="1" parent="1" source="VHVBHo6u8znhHrg9d9eZ-2" target="VHVBHo6u8znhHrg9d9eZ-4">
          <mxGeometry relative="1" as="geometry" />
        </mxCell>
        <mxCell id="VHVBHo6u8znhHrg9d9eZ-23" style="edgeStyle=orthogonalEdgeStyle;rounded=0;orthogonalLoop=1;jettySize=auto;html=1;exitX=0;exitY=0.5;exitDx=0;exitDy=0;entryX=1;entryY=0.5;entryDx=0;entryDy=0;" edge="1" parent="1" source="VHVBHo6u8znhHrg9d9eZ-2" target="VHVBHo6u8znhHrg9d9eZ-12">
          <mxGeometry relative="1" as="geometry" />
        </mxCell>
        <mxCell id="VHVBHo6u8znhHrg9d9eZ-25" style="edgeStyle=orthogonalEdgeStyle;rounded=0;orthogonalLoop=1;jettySize=auto;html=1;exitX=1;exitY=0.5;exitDx=0;exitDy=0;entryX=0;entryY=0.5;entryDx=0;entryDy=0;" edge="1" parent="1" source="VHVBHo6u8znhHrg9d9eZ-2" target="VHVBHo6u8znhHrg9d9eZ-6">
          <mxGeometry relative="1" as="geometry" />
        </mxCell>
        <mxCell id="VHVBHo6u8znhHrg9d9eZ-2" value="Guild Hall" style="rounded=0;whiteSpace=wrap;html=1;" vertex="1" parent="1">
          <mxGeometry x="360" y="240" width="120" height="80" as="geometry" />
        </mxCell>
        <mxCell id="VHVBHo6u8znhHrg9d9eZ-4" value="Job Board" style="rounded=0;whiteSpace=wrap;html=1;" vertex="1" parent="1">
          <mxGeometry x="360" y="360" width="120" height="80" as="geometry" />
        </mxCell>
        <mxCell id="VHVBHo6u8znhHrg9d9eZ-27" style="edgeStyle=orthogonalEdgeStyle;rounded=0;orthogonalLoop=1;jettySize=auto;html=1;exitX=0.5;exitY=0;exitDx=0;exitDy=0;" edge="1" parent="1" source="VHVBHo6u8znhHrg9d9eZ-6" target="VHVBHo6u8znhHrg9d9eZ-10">
          <mxGeometry relative="1" as="geometry" />
        </mxCell>
        <mxCell id="VHVBHo6u8znhHrg9d9eZ-28" style="edgeStyle=orthogonalEdgeStyle;rounded=0;orthogonalLoop=1;jettySize=auto;html=1;exitX=0.5;exitY=1;exitDx=0;exitDy=0;" edge="1" parent="1" source="VHVBHo6u8znhHrg9d9eZ-6" target="VHVBHo6u8znhHrg9d9eZ-7">
          <mxGeometry relative="1" as="geometry" />
        </mxCell>
        <mxCell id="VHVBHo6u8znhHrg9d9eZ-6" value="Armory" style="rounded=0;whiteSpace=wrap;html=1;" vertex="1" parent="1">
          <mxGeometry x="520" y="240" width="120" height="80" as="geometry" />
        </mxCell>
        <mxCell id="VHVBHo6u8znhHrg9d9eZ-31" style="edgeStyle=orthogonalEdgeStyle;rounded=0;orthogonalLoop=1;jettySize=auto;html=1;exitX=1;exitY=0.5;exitDx=0;exitDy=0;entryX=0;entryY=0.5;entryDx=0;entryDy=0;" edge="1" parent="1" source="VHVBHo6u8znhHrg9d9eZ-7" target="VHVBHo6u8znhHrg9d9eZ-13">
          <mxGeometry relative="1" as="geometry" />
        </mxCell>
        <mxCell id="VHVBHo6u8znhHrg9d9eZ-7" value="Recruitment Board" style="rounded=0;whiteSpace=wrap;html=1;" vertex="1" parent="1">
          <mxGeometry x="520" y="360" width="120" height="80" as="geometry" />
        </mxCell>
        <mxCell id="VHVBHo6u8znhHrg9d9eZ-8" value="" style="rounded=0;whiteSpace=wrap;html=1;" vertex="1" parent="1">
          <mxGeometry x="200" y="360" width="120" height="80" as="geometry" />
        </mxCell>
        <mxCell id="VHVBHo6u8znhHrg9d9eZ-9" value="Training Yard" style="rounded=0;whiteSpace=wrap;html=1;" vertex="1" parent="1">
          <mxGeometry x="200" y="120" width="120" height="80" as="geometry" />
        </mxCell>
        <mxCell id="VHVBHo6u8znhHrg9d9eZ-29" style="edgeStyle=orthogonalEdgeStyle;rounded=0;orthogonalLoop=1;jettySize=auto;html=1;exitX=1;exitY=0.5;exitDx=0;exitDy=0;" edge="1" parent="1" source="VHVBHo6u8znhHrg9d9eZ-10" target="VHVBHo6u8znhHrg9d9eZ-15">
          <mxGeometry relative="1" as="geometry" />
        </mxCell>
        <mxCell id="VHVBHo6u8znhHrg9d9eZ-10" value="Barracks" style="rounded=0;whiteSpace=wrap;html=1;" vertex="1" parent="1">
          <mxGeometry x="520" y="120" width="120" height="80" as="geometry" />
        </mxCell>
        <mxCell id="VHVBHo6u8znhHrg9d9eZ-12" value="Bier Hall" style="rounded=0;whiteSpace=wrap;html=1;" vertex="1" parent="1">
          <mxGeometry x="200" y="240" width="120" height="80" as="geometry" />
        </mxCell>
        <mxCell id="VHVBHo6u8znhHrg9d9eZ-30" style="edgeStyle=orthogonalEdgeStyle;rounded=0;orthogonalLoop=1;jettySize=auto;html=1;exitX=0.5;exitY=0;exitDx=0;exitDy=0;entryX=0.5;entryY=1;entryDx=0;entryDy=0;" edge="1" parent="1" source="VHVBHo6u8znhHrg9d9eZ-13" target="VHVBHo6u8znhHrg9d9eZ-14">
          <mxGeometry relative="1" as="geometry" />
        </mxCell>
        <mxCell id="VHVBHo6u8znhHrg9d9eZ-13" value="" style="rounded=0;whiteSpace=wrap;html=1;" vertex="1" parent="1">
          <mxGeometry x="680" y="360" width="120" height="80" as="geometry" />
        </mxCell>
        <mxCell id="VHVBHo6u8znhHrg9d9eZ-32" style="edgeStyle=orthogonalEdgeStyle;rounded=0;orthogonalLoop=1;jettySize=auto;html=1;exitX=0.5;exitY=0;exitDx=0;exitDy=0;entryX=0.5;entryY=1;entryDx=0;entryDy=0;" edge="1" parent="1" source="VHVBHo6u8znhHrg9d9eZ-14" target="VHVBHo6u8znhHrg9d9eZ-15">
          <mxGeometry relative="1" as="geometry" />
        </mxCell>
        <mxCell id="VHVBHo6u8znhHrg9d9eZ-14" value="Kennel" style="rounded=0;whiteSpace=wrap;html=1;" vertex="1" parent="1">
          <mxGeometry x="680" y="240" width="120" height="80" as="geometry" />
        </mxCell>
        <mxCell id="VHVBHo6u8znhHrg9d9eZ-15" value="Stable" style="rounded=0;whiteSpace=wrap;html=1;" vertex="1" parent="1">
          <mxGeometry x="680" y="120" width="120" height="80" as="geometry" />
        </mxCell>
        <mxCell id="VHVBHo6u8znhHrg9d9eZ-16" value="" style="rounded=0;whiteSpace=wrap;html=1;" vertex="1" parent="1">
          <mxGeometry x="40" y="120" width="120" height="80" as="geometry" />
        </mxCell>
        <mxCell id="VHVBHo6u8znhHrg9d9eZ-17" value="" style="rounded=0;whiteSpace=wrap;html=1;" vertex="1" parent="1">
          <mxGeometry x="40" y="240" width="120" height="80" as="geometry" />
        </mxCell>
        <mxCell id="VHVBHo6u8znhHrg9d9eZ-18" value="" style="rounded=0;whiteSpace=wrap;html=1;" vertex="1" parent="1">
          <mxGeometry x="40" y="360" width="120" height="80" as="geometry" />
        </mxCell>
        <mxCell id="VHVBHo6u8znhHrg9d9eZ-24" style="edgeStyle=orthogonalEdgeStyle;rounded=0;orthogonalLoop=1;jettySize=auto;html=1;exitX=0;exitY=0.5;exitDx=0;exitDy=0;" edge="1" parent="1" source="VHVBHo6u8znhHrg9d9eZ-19" target="VHVBHo6u8znhHrg9d9eZ-9">
          <mxGeometry relative="1" as="geometry" />
        </mxCell>
        <mxCell id="VHVBHo6u8znhHrg9d9eZ-26" style="edgeStyle=orthogonalEdgeStyle;rounded=0;orthogonalLoop=1;jettySize=auto;html=1;exitX=1;exitY=0.5;exitDx=0;exitDy=0;" edge="1" parent="1" source="VHVBHo6u8znhHrg9d9eZ-19" target="VHVBHo6u8znhHrg9d9eZ-10">
          <mxGeometry relative="1" as="geometry" />
        </mxCell>
        <mxCell id="VHVBHo6u8znhHrg9d9eZ-19" value="Dormitory" style="rounded=0;whiteSpace=wrap;html=1;" vertex="1" parent="1">
          <mxGeometry x="360" y="120" width="120" height="80" as="geometry" />
        </mxCell>
      </root>
    </mxGraphModel>
  </diagram>
</mxfile>
